<svg width="417" height="154" viewBox="0 0 417 154" fill="none" xmlns="http://www.w3.org/2000/svg">
<g clip-path="url(#clip0_309_2)">
<g filter="url(#filter0_d_309_2)">
<mask id="path-1-outside-1_309_2" maskUnits="userSpaceOnUse" x="4" y="6" width="410" height="142" fill="black">
<rect fill="white" x="4" y="6" width="410" height="142"/>
<path d="M81.2676 8.94986V145.44H60.0888L24.0372 53.9916H23.6802V145.44H5V8.94986H26.0599L62.1115 100.398H62.4684V8.94986H81.2676Z"/>
<path d="M113.284 123.992H157.545V145.44H98.7682V8.94986H156.95V30.3983H113.284L117.448 13.8245V78.1699L113.284 66.8607H154.571V87.9192H113.284L117.448 76.61V140.565L113.284 123.992Z"/>
<path d="M172.086 8.94986H209.566C218.767 8.94986 225.708 12.3946 230.388 19.2841C235.147 26.1736 237.527 36.3779 237.527 49.8969V59.2563C237.527 72.3853 235.147 82.3296 230.388 89.0891C225.628 95.8487 218.688 99.2284 209.566 99.2284H189.934V78.1699H203.974C209.209 78.1699 213.096 76.35 215.634 72.7103C218.251 69.0706 219.56 63.546 219.56 56.1365V52.6267C219.56 44.8273 218.291 39.1077 215.753 35.468C213.215 31.8282 209.288 30.0084 203.974 30.0084H186.483L190.767 22.9889V145.44H172.086V8.94986ZM205.996 92.9889H224.557L239.073 145.44H219.917L205.996 92.9889Z"/>
<path d="M254.119 8.94986H289.576C302.188 8.94986 311.429 13.0446 317.299 21.234C323.168 29.4234 326.103 42.4225 326.103 60.2312V94.1588C326.103 111.967 323.168 124.967 317.299 133.156C311.429 141.345 302.188 145.44 289.576 145.44H254.119V8.94986ZM268.754 125.162H286.601C294.057 125.162 299.372 122.822 302.545 118.142C305.797 113.332 307.423 105.533 307.423 94.7437V59.6462C307.423 48.727 305.797 40.9276 302.545 36.2479C299.372 31.5682 294.057 29.2284 286.601 29.2284H268.754L272.799 14.0195V140.565L268.754 125.162Z"/>
<path d="M375.591 147C364.248 147 355.682 143.49 349.891 136.471C344.101 129.321 340.73 118.207 339.778 103.128L358.577 101.763C359.212 109.953 360.996 116.127 363.931 120.287C366.945 124.447 371.03 126.526 376.186 126.526C380.866 126.526 384.515 124.967 387.133 121.847C389.83 118.597 391.178 114.177 391.178 108.588C391.178 104.038 390.266 100.463 388.442 97.8635C386.696 95.2637 384.317 93.1838 381.303 91.624C378.368 90.0641 375.155 88.6342 371.665 87.3343C368.175 86.0344 364.645 84.5395 361.076 82.8496C357.585 81.0297 354.333 78.6899 351.319 75.8301C348.384 72.8403 346.005 68.9406 344.18 64.1309C342.435 59.1913 341.563 52.8867 341.563 45.2173C341.563 33.1281 344.656 23.7688 350.843 17.1393C357.03 10.3798 365.637 7 376.662 7C387.767 7 396.255 10.3148 402.124 16.9443C407.994 23.5738 411.286 33.5831 412 46.9722L393.082 49.117C392.685 41.7075 391.099 36.2479 388.323 32.7382C385.626 29.2284 381.62 27.4735 376.305 27.4735C371.784 27.4735 368.215 29.0334 365.597 32.1532C363.059 35.143 361.789 39.3677 361.789 44.8273C361.789 49.507 362.662 53.2117 364.407 55.9415C366.232 58.5413 368.611 60.6862 371.546 62.376C374.56 63.9359 377.812 65.3658 381.303 66.6657C384.872 67.9656 388.402 69.4605 391.892 71.1504C395.382 72.8403 398.595 75.1151 401.53 77.9749C404.544 80.8347 406.923 84.6695 408.668 89.4791C410.493 94.1588 411.405 100.268 411.405 107.808C411.405 120.027 408.232 129.646 401.887 136.666C395.541 143.555 386.776 147 375.591 147Z"/>
</mask>
<path d="M81.2676 8.94986V145.44H60.0888L24.0372 53.9916H23.6802V145.44H5V8.94986H26.0599L62.1115 100.398H62.4684V8.94986H81.2676Z" fill="#827968" fill-opacity="0.18" shape-rendering="crispEdges"/>
<path d="M113.284 123.992H157.545V145.44H98.7682V8.94986H156.95V30.3983H113.284L117.448 13.8245V78.1699L113.284 66.8607H154.571V87.9192H113.284L117.448 76.61V140.565L113.284 123.992Z" fill="#827968" fill-opacity="0.18" shape-rendering="crispEdges"/>
<path d="M172.086 8.94986H209.566C218.767 8.94986 225.708 12.3946 230.388 19.2841C235.147 26.1736 237.527 36.3779 237.527 49.8969V59.2563C237.527 72.3853 235.147 82.3296 230.388 89.0891C225.628 95.8487 218.688 99.2284 209.566 99.2284H189.934V78.1699H203.974C209.209 78.1699 213.096 76.35 215.634 72.7103C218.251 69.0706 219.56 63.546 219.56 56.1365V52.6267C219.56 44.8273 218.291 39.1077 215.753 35.468C213.215 31.8282 209.288 30.0084 203.974 30.0084H186.483L190.767 22.9889V145.44H172.086V8.94986ZM205.996 92.9889H224.557L239.073 145.44H219.917L205.996 92.9889Z" fill="#827968" fill-opacity="0.18" shape-rendering="crispEdges"/>
<path d="M254.119 8.94986H289.576C302.188 8.94986 311.429 13.0446 317.299 21.234C323.168 29.4234 326.103 42.4225 326.103 60.2312V94.1588C326.103 111.967 323.168 124.967 317.299 133.156C311.429 141.345 302.188 145.44 289.576 145.44H254.119V8.94986ZM268.754 125.162H286.601C294.057 125.162 299.372 122.822 302.545 118.142C305.797 113.332 307.423 105.533 307.423 94.7437V59.6462C307.423 48.727 305.797 40.9276 302.545 36.2479C299.372 31.5682 294.057 29.2284 286.601 29.2284H268.754L272.799 14.0195V140.565L268.754 125.162Z" fill="#827968" fill-opacity="0.18" shape-rendering="crispEdges"/>
<path d="M375.591 147C364.248 147 355.682 143.49 349.891 136.471C344.101 129.321 340.73 118.207 339.778 103.128L358.577 101.763C359.212 109.953 360.996 116.127 363.931 120.287C366.945 124.447 371.03 126.526 376.186 126.526C380.866 126.526 384.515 124.967 387.133 121.847C389.83 118.597 391.178 114.177 391.178 108.588C391.178 104.038 390.266 100.463 388.442 97.8635C386.696 95.2637 384.317 93.1838 381.303 91.624C378.368 90.0641 375.155 88.6342 371.665 87.3343C368.175 86.0344 364.645 84.5395 361.076 82.8496C357.585 81.0297 354.333 78.6899 351.319 75.8301C348.384 72.8403 346.005 68.9406 344.18 64.1309C342.435 59.1913 341.563 52.8867 341.563 45.2173C341.563 33.1281 344.656 23.7688 350.843 17.1393C357.03 10.3798 365.637 7 376.662 7C387.767 7 396.255 10.3148 402.124 16.9443C407.994 23.5738 411.286 33.5831 412 46.9722L393.082 49.117C392.685 41.7075 391.099 36.2479 388.323 32.7382C385.626 29.2284 381.62 27.4735 376.305 27.4735C371.784 27.4735 368.215 29.0334 365.597 32.1532C363.059 35.143 361.789 39.3677 361.789 44.8273C361.789 49.507 362.662 53.2117 364.407 55.9415C366.232 58.5413 368.611 60.6862 371.546 62.376C374.56 63.9359 377.812 65.3658 381.303 66.6657C384.872 67.9656 388.402 69.4605 391.892 71.1504C395.382 72.8403 398.595 75.1151 401.53 77.9749C404.544 80.8347 406.923 84.6695 408.668 89.4791C410.493 94.1588 411.405 100.268 411.405 107.808C411.405 120.027 408.232 129.646 401.887 136.666C395.541 143.555 386.776 147 375.591 147Z" fill="#827968" fill-opacity="0.18" shape-rendering="crispEdges"/>
<path d="M81.2676 8.94986V145.44H60.0888L24.0372 53.9916H23.6802V145.44H5V8.94986H26.0599L62.1115 100.398H62.4684V8.94986H81.2676Z" stroke="black" stroke-width="2" shape-rendering="crispEdges" mask="url(#path-1-outside-1_309_2)"/>
<path d="M113.284 123.992H157.545V145.44H98.7682V8.94986H156.95V30.3983H113.284L117.448 13.8245V78.1699L113.284 66.8607H154.571V87.9192H113.284L117.448 76.61V140.565L113.284 123.992Z" stroke="black" stroke-width="2" shape-rendering="crispEdges" mask="url(#path-1-outside-1_309_2)"/>
<path d="M172.086 8.94986H209.566C218.767 8.94986 225.708 12.3946 230.388 19.2841C235.147 26.1736 237.527 36.3779 237.527 49.8969V59.2563C237.527 72.3853 235.147 82.3296 230.388 89.0891C225.628 95.8487 218.688 99.2284 209.566 99.2284H189.934V78.1699H203.974C209.209 78.1699 213.096 76.35 215.634 72.7103C218.251 69.0706 219.56 63.546 219.56 56.1365V52.6267C219.56 44.8273 218.291 39.1077 215.753 35.468C213.215 31.8282 209.288 30.0084 203.974 30.0084H186.483L190.767 22.9889V145.44H172.086V8.94986ZM205.996 92.9889H224.557L239.073 145.44H219.917L205.996 92.9889Z" stroke="black" stroke-width="2" shape-rendering="crispEdges" mask="url(#path-1-outside-1_309_2)"/>
<path d="M254.119 8.94986H289.576C302.188 8.94986 311.429 13.0446 317.299 21.234C323.168 29.4234 326.103 42.4225 326.103 60.2312V94.1588C326.103 111.967 323.168 124.967 317.299 133.156C311.429 141.345 302.188 145.44 289.576 145.44H254.119V8.94986ZM268.754 125.162H286.601C294.057 125.162 299.372 122.822 302.545 118.142C305.797 113.332 307.423 105.533 307.423 94.7437V59.6462C307.423 48.727 305.797 40.9276 302.545 36.2479C299.372 31.5682 294.057 29.2284 286.601 29.2284H268.754L272.799 14.0195V140.565L268.754 125.162Z" stroke="black" stroke-width="2" shape-rendering="crispEdges" mask="url(#path-1-outside-1_309_2)"/>
<path d="M375.591 147C364.248 147 355.682 143.49 349.891 136.471C344.101 129.321 340.73 118.207 339.778 103.128L358.577 101.763C359.212 109.953 360.996 116.127 363.931 120.287C366.945 124.447 371.03 126.526 376.186 126.526C380.866 126.526 384.515 124.967 387.133 121.847C389.83 118.597 391.178 114.177 391.178 108.588C391.178 104.038 390.266 100.463 388.442 97.8635C386.696 95.2637 384.317 93.1838 381.303 91.624C378.368 90.0641 375.155 88.6342 371.665 87.3343C368.175 86.0344 364.645 84.5395 361.076 82.8496C357.585 81.0297 354.333 78.6899 351.319 75.8301C348.384 72.8403 346.005 68.9406 344.18 64.1309C342.435 59.1913 341.563 52.8867 341.563 45.2173C341.563 33.1281 344.656 23.7688 350.843 17.1393C357.03 10.3798 365.637 7 376.662 7C387.767 7 396.255 10.3148 402.124 16.9443C407.994 23.5738 411.286 33.5831 412 46.9722L393.082 49.117C392.685 41.7075 391.099 36.2479 388.323 32.7382C385.626 29.2284 381.62 27.4735 376.305 27.4735C371.784 27.4735 368.215 29.0334 365.597 32.1532C363.059 35.143 361.789 39.3677 361.789 44.8273C361.789 49.507 362.662 53.2117 364.407 55.9415C366.232 58.5413 368.611 60.6862 371.546 62.376C374.56 63.9359 377.812 65.3658 381.303 66.6657C384.872 67.9656 388.402 69.4605 391.892 71.1504C395.382 72.8403 398.595 75.1151 401.53 77.9749C404.544 80.8347 406.923 84.6695 408.668 89.4791C410.493 94.1588 411.405 100.268 411.405 107.808C411.405 120.027 408.232 129.646 401.887 136.666C395.541 143.555 386.776 147 375.591 147Z" stroke="black" stroke-width="2" shape-rendering="crispEdges" mask="url(#path-1-outside-1_309_2)"/>
</g>
</g>
<defs>
<filter id="filter0_d_309_2" x="0" y="6" width="417.049" height="150" filterUnits="userSpaceOnUse" color-interpolation-filters="sRGB">
<feFlood flood-opacity="0" result="BackgroundImageFix"/>
<feColorMatrix in="SourceAlpha" type="matrix" values="0 0 0 0 0 0 0 0 0 0 0 0 0 0 0 0 0 0 127 0" result="hardAlpha"/>
<feOffset dy="4"/>
<feGaussianBlur stdDeviation="2"/>
<feComposite in2="hardAlpha" operator="out"/>
<feColorMatrix type="matrix" values="0 0 0 0 0 0 0 0 0 0 0 0 0 0 0 0 0 0 0.25 0"/>
<feBlend mode="normal" in2="BackgroundImageFix" result="effect1_dropShadow_309_2"/>
<feBlend mode="normal" in="SourceGraphic" in2="effect1_dropShadow_309_2" result="shape"/>
</filter>
<clipPath id="clip0_309_2">
<rect width="417" height="154" fill="white"/>
</clipPath>
</defs>
</svg>
