<svg width="1468" height="508" viewBox="0 0 1468 508" fill="none" xmlns="http://www.w3.org/2000/svg">
    <g clip-path="url(#clip0_309_139)">
        <mask id="mask0_309_139" style="mask-type:luminance" maskUnits="userSpaceOnUse" x="0" y="0"
            width="1468" height="508">
            <path d="M1467.25 0.929688H0.25V507.93H1467.25V0.929688Z" fill="white" />
        </mask>
        <g mask="url(#mask0_309_139)">
            <path d="M1467.25 0.929688H0.25V319.93H1467.25V0.929688Z"
                fill="url(#paint0_linear_309_139)" />
        </g>
        <path
            d="M76.2676 20.9499V157.44H55.0888L19.0372 65.9916H18.6802V157.44H0V20.9499H21.0599L57.1115 112.398H57.4684V20.9499H76.2676Z"
            fill="white" fill-opacity="0.18" />
        <path
            d="M108.284 135.992H152.545V157.44H93.7682V20.9499H151.95V42.3983H108.284L112.448 25.8245V90.1699L108.284 78.8607H149.571V99.9192H108.284L112.448 88.61V152.565L108.284 135.992Z"
            fill="white" fill-opacity="0.18" />
        <path
            d="M167.086 20.9499H204.566C213.767 20.9499 220.708 24.3946 225.388 31.2841C230.147 38.1736 232.527 48.3779 232.527 61.8969V71.2563C232.527 84.3853 230.147 94.3296 225.388 101.089C220.628 107.849 213.688 111.228 204.566 111.228H184.934V90.1699H198.974C204.209 90.1699 208.096 88.35 210.634 84.7103C213.251 81.0706 214.56 75.546 214.56 68.1365V64.6267C214.56 56.8273 213.291 51.1077 210.753 47.468C208.215 43.8282 204.288 42.0084 198.974 42.0084H181.483L185.767 34.9889V157.44H167.086V20.9499ZM200.996 104.989H219.557L234.073 157.44H214.917L200.996 104.989Z"
            fill="white" fill-opacity="0.18" />
        <path
            d="M249.119 20.9499H284.576C297.188 20.9499 306.429 25.0446 312.299 33.234C318.168 41.4234 321.103 54.4225 321.103 72.2312V106.159C321.103 123.967 318.168 136.967 312.299 145.156C306.429 153.345 297.188 157.44 284.576 157.44H249.119V20.9499ZM263.754 137.162H281.601C289.057 137.162 294.372 134.822 297.545 130.142C300.797 125.332 302.423 117.533 302.423 106.744V71.6462C302.423 60.727 300.797 52.9276 297.545 48.2479C294.372 43.5682 289.057 41.2284 281.601 41.2284H263.754L267.799 26.0195V152.565L263.754 137.162Z"
            fill="white" fill-opacity="0.18" />
        <path
            d="M370.591 159C359.248 159 350.682 155.49 344.891 148.471C339.101 141.321 335.73 130.207 334.778 115.128L353.577 113.763C354.212 121.953 355.996 128.127 358.931 132.287C361.945 136.447 366.03 138.526 371.186 138.526C375.866 138.526 379.515 136.967 382.133 133.847C384.83 130.597 386.178 126.177 386.178 120.588C386.178 116.038 385.266 112.463 383.442 109.864C381.696 107.264 379.317 105.184 376.303 103.624C373.368 102.064 370.155 100.634 366.665 99.3343C363.175 98.0344 359.645 96.5395 356.076 94.8496C352.585 93.0297 349.333 90.6899 346.319 87.8301C343.384 84.8403 341.005 80.9406 339.18 76.1309C337.435 71.1913 336.563 64.8867 336.563 57.2173C336.563 45.1281 339.656 35.7688 345.843 29.1393C352.03 22.3798 360.637 19 371.662 19C382.767 19 391.255 22.3148 397.124 28.9443C402.994 35.5738 406.286 45.5831 407 58.9722L388.082 61.117C387.685 53.7075 386.099 48.2479 383.323 44.7382C380.626 41.2284 376.62 39.4735 371.305 39.4735C366.784 39.4735 363.215 41.0334 360.597 44.1532C358.059 47.143 356.789 51.3677 356.789 56.8273C356.789 61.507 357.662 65.2117 359.407 67.9415C361.232 70.5413 363.611 72.6862 366.546 74.376C369.56 75.9359 372.812 77.3658 376.303 78.6657C379.872 79.9656 383.402 81.4605 386.892 83.1504C390.382 84.8403 393.595 87.1151 396.53 89.9749C399.544 92.8347 401.923 96.6695 403.668 101.479C405.493 106.159 406.405 112.268 406.405 119.808C406.405 132.027 403.232 141.646 396.887 148.666C390.541 155.555 381.776 159 370.591 159Z"
            fill="white" fill-opacity="0.18" />
        <path
            d="M519.268 20.9499V157.44H498.089L462.037 65.9916H461.68V157.44H443V20.9499H464.06L500.111 112.398H500.468V20.9499H519.268Z"
            fill="white" fill-opacity="0.18" />
        <path
            d="M551.284 135.992H595.545V157.44H536.768V20.9499H594.95V42.3983H551.284L555.448 25.8245V90.1699L551.284 78.8607H592.571V99.9192H551.284L555.448 88.61V152.565L551.284 135.992Z"
            fill="white" fill-opacity="0.18" />
        <path
            d="M610.086 20.9499H647.566C656.767 20.9499 663.708 24.3946 668.388 31.2841C673.147 38.1736 675.527 48.3779 675.527 61.8969V71.2563C675.527 84.3853 673.147 94.3296 668.388 101.089C663.628 107.849 656.688 111.228 647.566 111.228H627.934V90.1699H641.974C647.209 90.1699 651.096 88.35 653.634 84.7103C656.251 81.0706 657.56 75.546 657.56 68.1365V64.6267C657.56 56.8273 656.291 51.1077 653.753 47.468C651.215 43.8282 647.288 42.0084 641.974 42.0084H624.483L628.767 34.9889V157.44H610.086V20.9499ZM643.996 104.989H662.557L677.073 157.44H657.917L643.996 104.989Z"
            fill="white" fill-opacity="0.18" />
        <path
            d="M692.119 20.9499H727.576C740.188 20.9499 749.429 25.0446 755.299 33.234C761.168 41.4234 764.103 54.4225 764.103 72.2312V106.159C764.103 123.967 761.168 136.967 755.299 145.156C749.429 153.345 740.188 157.44 727.576 157.44H692.119V20.9499ZM706.754 137.162H724.601C732.057 137.162 737.372 134.822 740.545 130.142C743.797 125.332 745.423 117.533 745.423 106.744V71.6462C745.423 60.727 743.797 52.9276 740.545 48.2479C737.372 43.5682 732.057 41.2284 724.601 41.2284H706.754L710.799 26.0195V152.565L706.754 137.162Z"
            fill="white" fill-opacity="0.18" />
        <path
            d="M813.591 159C802.248 159 793.682 155.49 787.891 148.471C782.101 141.321 778.73 130.207 777.778 115.128L796.577 113.763C797.212 121.953 798.996 128.127 801.931 132.287C804.945 136.447 809.03 138.526 814.186 138.526C818.866 138.526 822.515 136.967 825.133 133.847C827.83 130.597 829.178 126.177 829.178 120.588C829.178 116.038 828.266 112.463 826.442 109.864C824.696 107.264 822.317 105.184 819.303 103.624C816.368 102.064 813.155 100.634 809.665 99.3343C806.175 98.0344 802.645 96.5395 799.076 94.8496C795.585 93.0297 792.333 90.6899 789.319 87.8301C786.384 84.8403 784.005 80.9406 782.18 76.1309C780.435 71.1913 779.563 64.8867 779.563 57.2173C779.563 45.1281 782.656 35.7688 788.843 29.1393C795.03 22.3798 803.637 19 814.662 19C825.767 19 834.255 22.3148 840.124 28.9443C845.994 35.5738 849.286 45.5831 850 58.9722L831.082 61.117C830.685 53.7075 829.099 48.2479 826.323 44.7382C823.626 41.2284 819.62 39.4735 814.305 39.4735C809.784 39.4735 806.215 41.0334 803.597 44.1532C801.059 47.143 799.789 51.3677 799.789 56.8273C799.789 61.507 800.662 65.2117 802.407 67.9415C804.232 70.5413 806.611 72.6862 809.546 74.376C812.56 75.9359 815.812 77.3658 819.303 78.6657C822.872 79.9656 826.402 81.4605 829.892 83.1504C833.382 84.8403 836.595 87.1151 839.53 89.9749C842.544 92.8347 844.923 96.6695 846.668 101.479C848.493 106.159 849.405 112.268 849.405 119.808C849.405 132.027 846.232 141.646 839.887 148.666C833.541 155.555 824.776 159 813.591 159Z"
            fill="white" fill-opacity="0.18" />
        <path
            d="M962.268 20.9499V157.44H941.089L905.037 65.9916H904.68V157.44H886V20.9499H907.06L943.111 112.398H943.468V20.9499H962.268Z"
            fill="white" fill-opacity="0.18" />
        <path
            d="M994.284 135.992H1038.55V157.44H979.768V20.9499H1037.95V42.3983H994.284L998.448 25.8245V90.1699L994.284 78.8607H1035.57V99.9192H994.284L998.448 88.61V152.565L994.284 135.992Z"
            fill="white" fill-opacity="0.18" />
        <path
            d="M1053.09 20.9499H1090.57C1099.77 20.9499 1106.71 24.3946 1111.39 31.2841C1116.15 38.1736 1118.53 48.3779 1118.53 61.8969V71.2563C1118.53 84.3853 1116.15 94.3296 1111.39 101.089C1106.63 107.849 1099.69 111.228 1090.57 111.228H1070.93V90.1699H1084.97C1090.21 90.1699 1094.1 88.35 1096.63 84.7103C1099.25 81.0706 1100.56 75.546 1100.56 68.1365V64.6267C1100.56 56.8273 1099.29 51.1077 1096.75 47.468C1094.21 43.8282 1090.29 42.0084 1084.97 42.0084H1067.48L1071.77 34.9889V157.44H1053.09V20.9499ZM1087 104.989H1105.56L1120.07 157.44H1100.92L1087 104.989Z"
            fill="white" fill-opacity="0.18" />
        <path
            d="M1135.12 20.9499H1170.58C1183.19 20.9499 1192.43 25.0446 1198.3 33.234C1204.17 41.4234 1207.1 54.4225 1207.1 72.2312V106.159C1207.1 123.967 1204.17 136.967 1198.3 145.156C1192.43 153.345 1183.19 157.44 1170.58 157.44H1135.12V20.9499ZM1149.75 137.162H1167.6C1175.06 137.162 1180.37 134.822 1183.54 130.142C1186.8 125.332 1188.42 117.533 1188.42 106.744V71.6462C1188.42 60.727 1186.8 52.9276 1183.54 48.2479C1180.37 43.5682 1175.06 41.2284 1167.6 41.2284H1149.75L1153.8 26.0195V152.565L1149.75 137.162Z"
            fill="white" fill-opacity="0.18" />
        <path
            d="M1256.59 159C1245.25 159 1236.68 155.49 1230.89 148.471C1225.1 141.321 1221.73 130.207 1220.78 115.128L1239.58 113.763C1240.21 121.953 1242 128.127 1244.93 132.287C1247.95 136.447 1252.03 138.526 1257.19 138.526C1261.87 138.526 1265.52 136.967 1268.13 133.847C1270.83 130.597 1272.18 126.177 1272.18 120.588C1272.18 116.038 1271.27 112.463 1269.44 109.864C1267.7 107.264 1265.32 105.184 1262.3 103.624C1259.37 102.064 1256.16 100.634 1252.67 99.3343C1249.17 98.0344 1245.65 96.5395 1242.08 94.8496C1238.59 93.0297 1235.33 90.6899 1232.32 87.8301C1229.38 84.8403 1227 80.9406 1225.18 76.1309C1223.44 71.1913 1222.56 64.8867 1222.56 57.2173C1222.56 45.1281 1225.66 35.7688 1231.84 29.1393C1238.03 22.3798 1246.64 19 1257.66 19C1268.77 19 1277.25 22.3148 1283.12 28.9443C1288.99 35.5738 1292.29 45.5831 1293 58.9722L1274.08 61.117C1273.69 53.7075 1272.1 48.2479 1269.32 44.7382C1266.63 41.2284 1262.62 39.4735 1257.31 39.4735C1252.78 39.4735 1249.21 41.0334 1246.6 44.1532C1244.06 47.143 1242.79 51.3677 1242.79 56.8273C1242.79 61.507 1243.66 65.2117 1245.41 67.9415C1247.23 70.5413 1249.61 72.6862 1252.55 74.376C1255.56 75.9359 1258.81 77.3658 1262.3 78.6657C1265.87 79.9656 1269.4 81.4605 1272.89 83.1504C1276.38 84.8403 1279.59 87.1151 1282.53 89.9749C1285.54 92.8347 1287.92 96.6695 1289.67 101.479C1291.49 106.159 1292.41 112.268 1292.41 119.808C1292.41 132.027 1289.23 141.646 1282.89 148.666C1276.54 155.555 1267.78 159 1256.59 159Z"
            fill="white" fill-opacity="0.18" />
        <path
            d="M1405.27 20.9499V157.44H1384.09L1348.04 65.9916H1347.68V157.44H1329V20.9499H1350.06L1386.11 112.398H1386.47V20.9499H1405.27Z"
            fill="white" fill-opacity="0.18" />
        <path
            d="M1437.28 135.992H1481.55V157.44H1422.77V20.9499H1480.95V42.3983H1437.28L1441.45 25.8245V90.1699L1437.28 78.8607H1478.57V99.9192H1437.28L1441.45 88.61V152.565L1437.28 135.992Z"
            fill="white" fill-opacity="0.18" />
        <path
            d="M1496.09 20.9499H1533.57C1542.77 20.9499 1549.71 24.3946 1554.39 31.2841C1559.15 38.1736 1561.53 48.3779 1561.53 61.8969V71.2563C1561.53 84.3853 1559.15 94.3296 1554.39 101.089C1549.63 107.849 1542.69 111.228 1533.57 111.228H1513.93V90.1699H1527.97C1533.21 90.1699 1537.1 88.35 1539.63 84.7103C1542.25 81.0706 1543.56 75.546 1543.56 68.1365V64.6267C1543.56 56.8273 1542.29 51.1077 1539.75 47.468C1537.21 43.8282 1533.29 42.0084 1527.97 42.0084H1510.48L1514.77 34.9889V157.44H1496.09V20.9499ZM1530 104.989H1548.56L1563.07 157.44H1543.92L1530 104.989Z"
            fill="white" fill-opacity="0.18" />
        <path
            d="M1578.12 20.9499H1613.58C1626.19 20.9499 1635.43 25.0446 1641.3 33.234C1647.17 41.4234 1650.1 54.4225 1650.1 72.2312V106.159C1650.1 123.967 1647.17 136.967 1641.3 145.156C1635.43 153.345 1626.19 157.44 1613.58 157.44H1578.12V20.9499ZM1592.75 137.162H1610.6C1618.06 137.162 1623.37 134.822 1626.54 130.142C1629.8 125.332 1631.42 117.533 1631.42 106.744V71.6462C1631.42 60.727 1629.8 52.9276 1626.54 48.2479C1623.37 43.5682 1618.06 41.2284 1610.6 41.2284H1592.75L1596.8 26.0195V152.565L1592.75 137.162Z"
            fill="white" fill-opacity="0.18" />
        <path
            d="M1699.59 159C1688.25 159 1679.68 155.49 1673.89 148.471C1668.1 141.321 1664.73 130.207 1663.78 115.128L1682.58 113.763C1683.21 121.953 1685 128.127 1687.93 132.287C1690.95 136.447 1695.03 138.526 1700.19 138.526C1704.87 138.526 1708.52 136.967 1711.13 133.847C1713.83 130.597 1715.18 126.177 1715.18 120.588C1715.18 116.038 1714.27 112.463 1712.44 109.864C1710.7 107.264 1708.32 105.184 1705.3 103.624C1702.37 102.064 1699.16 100.634 1695.67 99.3343C1692.17 98.0344 1688.65 96.5395 1685.08 94.8496C1681.59 93.0297 1678.33 90.6899 1675.32 87.8301C1672.38 84.8403 1670 80.9406 1668.18 76.1309C1666.44 71.1913 1665.56 64.8867 1665.56 57.2173C1665.56 45.1281 1668.66 35.7688 1674.84 29.1393C1681.03 22.3798 1689.64 19 1700.66 19C1711.77 19 1720.25 22.3148 1726.12 28.9443C1731.99 35.5738 1735.29 45.5831 1736 58.9722L1717.08 61.117C1716.69 53.7075 1715.1 48.2479 1712.32 44.7382C1709.63 41.2284 1705.62 39.4735 1700.31 39.4735C1695.78 39.4735 1692.21 41.0334 1689.6 44.1532C1687.06 47.143 1685.79 51.3677 1685.79 56.8273C1685.79 61.507 1686.66 65.2117 1688.41 67.9415C1690.23 70.5413 1692.61 72.6862 1695.55 74.376C1698.56 75.9359 1701.81 77.3658 1705.3 78.6657C1708.87 79.9656 1712.4 81.4605 1715.89 83.1504C1719.38 84.8403 1722.59 87.1151 1725.53 89.9749C1728.54 92.8347 1730.92 96.6695 1732.67 101.479C1734.49 106.159 1735.41 112.268 1735.41 119.808C1735.41 132.027 1732.23 141.646 1725.89 148.666C1719.54 155.555 1710.78 159 1699.59 159Z"
            fill="white" fill-opacity="0.18" />
        <path
            d="M-99.7324 185.95V322.44H-120.911L-156.963 230.992H-157.32V322.44H-176V185.95H-154.94L-118.889 277.398H-118.532V185.95H-99.7324Z"
            fill="white" fill-opacity="0.14" />
        <path
            d="M-67.716 300.992H-23.4546V322.44H-82.2318V185.95H-24.0495V207.398H-67.716L-63.5516 190.825V255.17L-67.716 243.861H-26.4292V264.919H-67.716L-63.5516 253.61V317.565L-67.716 300.992Z"
            fill="white" fill-opacity="0.14" />
        <path
            d="M-8.91367 185.95H28.5657C37.767 185.95 44.7076 189.395 49.3876 196.284C54.1469 203.174 56.5265 213.378 56.5265 226.897V236.256C56.5265 249.385 54.1469 259.33 49.3876 266.089C44.6283 272.849 37.6877 276.228 28.5657 276.228H8.93366V255.17H22.9736C28.2088 255.17 32.0955 253.35 34.6338 249.71C37.2514 246.071 38.5602 240.546 38.5602 233.136V229.627C38.5602 221.827 37.2911 216.108 34.7528 212.468C32.2145 208.828 28.2881 207.008 22.9736 207.008H5.48317L9.76654 199.989V322.44H-8.91367V185.95ZM24.9963 269.989H43.5575L58.0733 322.44H38.9172L24.9963 269.989Z"
            fill="white" fill-opacity="0.14" />
        <path
            d="M73.119 185.95H108.576C121.188 185.95 130.429 190.045 136.299 198.234C142.168 206.423 145.103 219.422 145.103 237.231V271.159C145.103 288.967 142.168 301.967 136.299 310.156C130.429 318.345 121.188 322.44 108.576 322.44H73.119V185.95ZM87.7538 302.162H105.601C113.057 302.162 118.372 299.822 121.545 295.142C124.797 290.332 126.423 282.533 126.423 271.744V236.646C126.423 225.727 124.797 217.928 121.545 213.248C118.372 208.568 113.057 206.228 105.601 206.228H87.7538L91.7992 191.02V317.565L87.7538 302.162Z"
            fill="white" fill-opacity="0.14" />
        <path
            d="M194.591 324C183.248 324 174.682 320.49 168.891 313.471C163.101 306.321 159.73 295.207 158.778 280.128L177.577 278.763C178.212 286.953 179.996 293.127 182.931 297.287C185.945 301.447 190.03 303.526 195.186 303.526C199.866 303.526 203.515 301.967 206.133 298.847C208.83 295.597 210.178 291.177 210.178 285.588C210.178 281.038 209.266 277.463 207.442 274.864C205.696 272.264 203.317 270.184 200.303 268.624C197.368 267.064 194.155 265.634 190.665 264.334C187.175 263.034 183.645 261.539 180.076 259.85C176.585 258.03 173.333 255.69 170.319 252.83C167.384 249.84 165.005 245.941 163.18 241.131C161.435 236.191 160.563 229.887 160.563 222.217C160.563 210.128 163.656 200.769 169.843 194.139C176.03 187.38 184.637 184 195.662 184C206.767 184 215.255 187.315 221.124 193.944C226.994 200.574 230.286 210.583 231 223.972L212.082 226.117C211.685 218.708 210.099 213.248 207.323 209.738C204.626 206.228 200.62 204.474 195.305 204.474C190.784 204.474 187.215 206.033 184.597 209.153C182.059 212.143 180.789 216.368 180.789 221.827C180.789 226.507 181.662 230.212 183.407 232.942C185.232 235.541 187.611 237.686 190.546 239.376C193.56 240.936 196.812 242.366 200.303 243.666C203.872 244.966 207.402 246.461 210.892 248.15C214.382 249.84 217.595 252.115 220.53 254.975C223.544 257.835 225.923 261.669 227.668 266.479C229.493 271.159 230.405 277.268 230.405 284.808C230.405 297.027 227.232 306.646 220.887 313.666C214.541 320.555 205.776 324 194.591 324Z"
            fill="white" fill-opacity="0.14" />
        <path
            d="M343.268 185.95V322.44H322.089L286.037 230.992H285.68V322.44H267V185.95H288.06L324.111 277.398H324.468V185.95H343.268Z"
            fill="white" fill-opacity="0.14" />
        <path
            d="M375.284 300.992H419.545V322.44H360.768V185.95H418.95V207.398H375.284L379.448 190.825V255.17L375.284 243.861H416.571V264.919H375.284L379.448 253.61V317.565L375.284 300.992Z"
            fill="white" fill-opacity="0.14" />
        <path
            d="M434.086 185.95H471.566C480.767 185.95 487.708 189.395 492.388 196.284C497.147 203.174 499.527 213.378 499.527 226.897V236.256C499.527 249.385 497.147 259.33 492.388 266.089C487.628 272.849 480.688 276.228 471.566 276.228H451.934V255.17H465.974C471.209 255.17 475.096 253.35 477.634 249.71C480.251 246.071 481.56 240.546 481.56 233.136V229.627C481.56 221.827 480.291 216.108 477.753 212.468C475.215 208.828 471.288 207.008 465.974 207.008H448.483L452.767 199.989V322.44H434.086V185.95ZM467.996 269.989H486.557L501.073 322.44H481.917L467.996 269.989Z"
            fill="white" fill-opacity="0.14" />
        <path
            d="M516.119 185.95H551.576C564.188 185.95 573.429 190.045 579.299 198.234C585.168 206.423 588.103 219.422 588.103 237.231V271.159C588.103 288.967 585.168 301.967 579.299 310.156C573.429 318.345 564.188 322.44 551.576 322.44H516.119V185.95ZM530.754 302.162H548.601C556.057 302.162 561.372 299.822 564.545 295.142C567.797 290.332 569.423 282.533 569.423 271.744V236.646C569.423 225.727 567.797 217.928 564.545 213.248C561.372 208.568 556.057 206.228 548.601 206.228H530.754L534.799 191.02V317.565L530.754 302.162Z"
            fill="white" fill-opacity="0.14" />
        <path
            d="M637.591 324C626.248 324 617.682 320.49 611.891 313.471C606.101 306.321 602.73 295.207 601.778 280.128L620.577 278.763C621.212 286.953 622.996 293.127 625.931 297.287C628.945 301.447 633.03 303.526 638.186 303.526C642.866 303.526 646.515 301.967 649.133 298.847C651.83 295.597 653.178 291.177 653.178 285.588C653.178 281.038 652.266 277.463 650.442 274.864C648.696 272.264 646.317 270.184 643.303 268.624C640.368 267.064 637.155 265.634 633.665 264.334C630.175 263.034 626.645 261.539 623.076 259.85C619.585 258.03 616.333 255.69 613.319 252.83C610.384 249.84 608.005 245.941 606.18 241.131C604.435 236.191 603.563 229.887 603.563 222.217C603.563 210.128 606.656 200.769 612.843 194.139C619.03 187.38 627.637 184 638.662 184C649.767 184 658.255 187.315 664.124 193.944C669.994 200.574 673.286 210.583 674 223.972L655.082 226.117C654.685 218.708 653.099 213.248 650.323 209.738C647.626 206.228 643.62 204.474 638.305 204.474C633.784 204.474 630.215 206.033 627.597 209.153C625.059 212.143 623.789 216.368 623.789 221.827C623.789 226.507 624.662 230.212 626.407 232.942C628.232 235.541 630.611 237.686 633.546 239.376C636.56 240.936 639.812 242.366 643.303 243.666C646.872 244.966 650.402 246.461 653.892 248.15C657.382 249.84 660.595 252.115 663.53 254.975C666.544 257.835 668.923 261.669 670.668 266.479C672.493 271.159 673.405 277.268 673.405 284.808C673.405 297.027 670.232 306.646 663.887 313.666C657.541 320.555 648.776 324 637.591 324Z"
            fill="white" fill-opacity="0.14" />
        <path
            d="M786.268 185.95V322.44H765.089L729.037 230.992H728.68V322.44H710V185.95H731.06L767.111 277.398H767.468V185.95H786.268Z"
            fill="white" fill-opacity="0.14" />
        <path
            d="M818.284 300.992H862.545V322.44H803.768V185.95H861.95V207.398H818.284L822.448 190.825V255.17L818.284 243.861H859.571V264.919H818.284L822.448 253.61V317.565L818.284 300.992Z"
            fill="white" fill-opacity="0.14" />
        <path
            d="M877.086 185.95H914.566C923.767 185.95 930.708 189.395 935.388 196.284C940.147 203.174 942.527 213.378 942.527 226.897V236.256C942.527 249.385 940.147 259.33 935.388 266.089C930.628 272.849 923.688 276.228 914.566 276.228H894.934V255.17H908.974C914.209 255.17 918.096 253.35 920.634 249.71C923.251 246.071 924.56 240.546 924.56 233.136V229.627C924.56 221.827 923.291 216.108 920.753 212.468C918.215 208.828 914.288 207.008 908.974 207.008H891.483L895.767 199.989V322.44H877.086V185.95ZM910.996 269.989H929.557L944.073 322.44H924.917L910.996 269.989Z"
            fill="white" fill-opacity="0.14" />
        <path
            d="M959.119 185.95H994.576C1007.19 185.95 1016.43 190.045 1022.3 198.234C1028.17 206.423 1031.1 219.422 1031.1 237.231V271.159C1031.1 288.967 1028.17 301.967 1022.3 310.156C1016.43 318.345 1007.19 322.44 994.576 322.44H959.119V185.95ZM973.754 302.162H991.601C999.057 302.162 1004.37 299.822 1007.54 295.142C1010.8 290.332 1012.42 282.533 1012.42 271.744V236.646C1012.42 225.727 1010.8 217.928 1007.54 213.248C1004.37 208.568 999.057 206.228 991.601 206.228H973.754L977.799 191.02V317.565L973.754 302.162Z"
            fill="white" fill-opacity="0.14" />
        <path
            d="M1080.59 324C1069.25 324 1060.68 320.49 1054.89 313.471C1049.1 306.321 1045.73 295.207 1044.78 280.128L1063.58 278.763C1064.21 286.953 1066 293.127 1068.93 297.287C1071.95 301.447 1076.03 303.526 1081.19 303.526C1085.87 303.526 1089.52 301.967 1092.13 298.847C1094.83 295.597 1096.18 291.177 1096.18 285.588C1096.18 281.038 1095.27 277.463 1093.44 274.864C1091.7 272.264 1089.32 270.184 1086.3 268.624C1083.37 267.064 1080.16 265.634 1076.67 264.334C1073.17 263.034 1069.65 261.539 1066.08 259.85C1062.59 258.03 1059.33 255.69 1056.32 252.83C1053.38 249.84 1051 245.941 1049.18 241.131C1047.44 236.191 1046.56 229.887 1046.56 222.217C1046.56 210.128 1049.66 200.769 1055.84 194.139C1062.03 187.38 1070.64 184 1081.66 184C1092.77 184 1101.25 187.315 1107.12 193.944C1112.99 200.574 1116.29 210.583 1117 223.972L1098.08 226.117C1097.69 218.708 1096.1 213.248 1093.32 209.738C1090.63 206.228 1086.62 204.474 1081.31 204.474C1076.78 204.474 1073.21 206.033 1070.6 209.153C1068.06 212.143 1066.79 216.368 1066.79 221.827C1066.79 226.507 1067.66 230.212 1069.41 232.942C1071.23 235.541 1073.61 237.686 1076.55 239.376C1079.56 240.936 1082.81 242.366 1086.3 243.666C1089.87 244.966 1093.4 246.461 1096.89 248.15C1100.38 249.84 1103.59 252.115 1106.53 254.975C1109.54 257.835 1111.92 261.669 1113.67 266.479C1115.49 271.159 1116.41 277.268 1116.41 284.808C1116.41 297.027 1113.23 306.646 1106.89 313.666C1100.54 320.555 1091.78 324 1080.59 324Z"
            fill="white" fill-opacity="0.14" />
        <path
            d="M1229.27 185.95V322.44H1208.09L1172.04 230.992H1171.68V322.44H1153V185.95H1174.06L1210.11 277.398H1210.47V185.95H1229.27Z"
            fill="white" fill-opacity="0.14" />
        <path
            d="M1261.28 300.992H1305.55V322.44H1246.77V185.95H1304.95V207.398H1261.28L1265.45 190.825V255.17L1261.28 243.861H1302.57V264.919H1261.28L1265.45 253.61V317.565L1261.28 300.992Z"
            fill="white" fill-opacity="0.14" />
        <path
            d="M1320.09 185.95H1357.57C1366.77 185.95 1373.71 189.395 1378.39 196.284C1383.15 203.174 1385.53 213.378 1385.53 226.897V236.256C1385.53 249.385 1383.15 259.33 1378.39 266.089C1373.63 272.849 1366.69 276.228 1357.57 276.228H1337.93V255.17H1351.97C1357.21 255.17 1361.1 253.35 1363.63 249.71C1366.25 246.071 1367.56 240.546 1367.56 233.136V229.627C1367.56 221.827 1366.29 216.108 1363.75 212.468C1361.21 208.828 1357.29 207.008 1351.97 207.008H1334.48L1338.77 199.989V322.44H1320.09V185.95ZM1354 269.989H1372.56L1387.07 322.44H1367.92L1354 269.989Z"
            fill="white" fill-opacity="0.14" />
        <path
            d="M1402.12 185.95H1437.58C1450.19 185.95 1459.43 190.045 1465.3 198.234C1471.17 206.423 1474.1 219.422 1474.1 237.231V271.159C1474.1 288.967 1471.17 301.967 1465.3 310.156C1459.43 318.345 1450.19 322.44 1437.58 322.44H1402.12V185.95ZM1416.75 302.162H1434.6C1442.06 302.162 1447.37 299.822 1450.54 295.142C1453.8 290.332 1455.42 282.533 1455.42 271.744V236.646C1455.42 225.727 1453.8 217.928 1450.54 213.248C1447.37 208.568 1442.06 206.228 1434.6 206.228H1416.75L1420.8 191.02V317.565L1416.75 302.162Z"
            fill="white" fill-opacity="0.14" />
        <path
            d="M1523.59 324C1512.25 324 1503.68 320.49 1497.89 313.471C1492.1 306.321 1488.73 295.207 1487.78 280.128L1506.58 278.763C1507.21 286.953 1509 293.127 1511.93 297.287C1514.95 301.447 1519.03 303.526 1524.19 303.526C1528.87 303.526 1532.52 301.967 1535.13 298.847C1537.83 295.597 1539.18 291.177 1539.18 285.588C1539.18 281.038 1538.27 277.463 1536.44 274.864C1534.7 272.264 1532.32 270.184 1529.3 268.624C1526.37 267.064 1523.16 265.634 1519.67 264.334C1516.17 263.034 1512.65 261.539 1509.08 259.85C1505.59 258.03 1502.33 255.69 1499.32 252.83C1496.38 249.84 1494 245.941 1492.18 241.131C1490.44 236.191 1489.56 229.887 1489.56 222.217C1489.56 210.128 1492.66 200.769 1498.84 194.139C1505.03 187.38 1513.64 184 1524.66 184C1535.77 184 1544.25 187.315 1550.12 193.944C1555.99 200.574 1559.29 210.583 1560 223.972L1541.08 226.117C1540.69 218.708 1539.1 213.248 1536.32 209.738C1533.63 206.228 1529.62 204.474 1524.31 204.474C1519.78 204.474 1516.21 206.033 1513.6 209.153C1511.06 212.143 1509.79 216.368 1509.79 221.827C1509.79 226.507 1510.66 230.212 1512.41 232.942C1514.23 235.541 1516.61 237.686 1519.55 239.376C1522.56 240.936 1525.81 242.366 1529.3 243.666C1532.87 244.966 1536.4 246.461 1539.89 248.15C1543.38 249.84 1546.59 252.115 1549.53 254.975C1552.54 257.835 1554.92 261.669 1556.67 266.479C1558.49 271.159 1559.41 277.268 1559.41 284.808C1559.41 297.027 1556.23 306.646 1549.89 313.666C1543.54 320.555 1534.78 324 1523.59 324Z"
            fill="white" fill-opacity="0.14" />
        <path
            d="M76.2676 350.95V487.44H55.0888L19.0372 395.992H18.6802V487.44H0V350.95H21.0599L57.1115 442.398H57.4684V350.95H76.2676Z"
            fill="white" fill-opacity="0.1" />
        <path
            d="M108.284 465.992H152.545V487.44H93.7682V350.95H151.95V372.398H108.284L112.448 355.825V420.17L108.284 408.861H149.571V429.919H108.284L112.448 418.61V482.565L108.284 465.992Z"
            fill="white" fill-opacity="0.1" />
        <path
            d="M167.086 350.95H204.566C213.767 350.95 220.708 354.395 225.388 361.284C230.147 368.174 232.527 378.378 232.527 391.897V401.256C232.527 414.385 230.147 424.33 225.388 431.089C220.628 437.849 213.688 441.228 204.566 441.228H184.934V420.17H198.974C204.209 420.17 208.096 418.35 210.634 414.71C213.251 411.071 214.56 405.546 214.56 398.136V394.627C214.56 386.827 213.291 381.108 210.753 377.468C208.215 373.828 204.288 372.008 198.974 372.008H181.483L185.767 364.989V487.44H167.086V350.95ZM200.996 434.989H219.557L234.073 487.44H214.917L200.996 434.989Z"
            fill="white" fill-opacity="0.1" />
        <path
            d="M249.119 350.95H284.576C297.188 350.95 306.429 355.045 312.299 363.234C318.168 371.423 321.103 384.422 321.103 402.231V436.159C321.103 453.967 318.168 466.967 312.299 475.156C306.429 483.345 297.188 487.44 284.576 487.44H249.119V350.95ZM263.754 467.162H281.601C289.057 467.162 294.372 464.822 297.545 460.142C300.797 455.332 302.423 447.533 302.423 436.744V401.646C302.423 390.727 300.797 382.928 297.545 378.248C294.372 373.568 289.057 371.228 281.601 371.228H263.754L267.799 356.02V482.565L263.754 467.162Z"
            fill="white" fill-opacity="0.1" />
        <path
            d="M370.591 489C359.248 489 350.682 485.49 344.891 478.471C339.101 471.321 335.73 460.207 334.778 445.128L353.577 443.763C354.212 451.953 355.996 458.127 358.931 462.287C361.945 466.447 366.03 468.526 371.186 468.526C375.866 468.526 379.515 466.967 382.133 463.847C384.83 460.597 386.178 456.177 386.178 450.588C386.178 446.038 385.266 442.463 383.442 439.864C381.696 437.264 379.317 435.184 376.303 433.624C373.368 432.064 370.155 430.634 366.665 429.334C363.175 428.034 359.645 426.539 356.076 424.85C352.585 423.03 349.333 420.69 346.319 417.83C343.384 414.84 341.005 410.941 339.18 406.131C337.435 401.191 336.563 394.887 336.563 387.217C336.563 375.128 339.656 365.769 345.843 359.139C352.03 352.38 360.637 349 371.662 349C382.767 349 391.255 352.315 397.124 358.944C402.994 365.574 406.286 375.583 407 388.972L388.082 391.117C387.685 383.708 386.099 378.248 383.323 374.738C380.626 371.228 376.62 369.474 371.305 369.474C366.784 369.474 363.215 371.033 360.597 374.153C358.059 377.143 356.789 381.368 356.789 386.827C356.789 391.507 357.662 395.212 359.407 397.942C361.232 400.541 363.611 402.686 366.546 404.376C369.56 405.936 372.812 407.366 376.303 408.666C379.872 409.966 383.402 411.461 386.892 413.15C390.382 414.84 393.595 417.115 396.53 419.975C399.544 422.835 401.923 426.669 403.668 431.479C405.493 436.159 406.405 442.268 406.405 449.808C406.405 462.027 403.232 471.646 396.887 478.666C390.541 485.555 381.776 489 370.591 489Z"
            fill="white" fill-opacity="0.1" />
        <path
            d="M519.268 350.95V487.44H498.089L462.037 395.992H461.68V487.44H443V350.95H464.06L500.111 442.398H500.468V350.95H519.268Z"
            fill="white" fill-opacity="0.1" />
        <path
            d="M551.284 465.992H595.545V487.44H536.768V350.95H594.95V372.398H551.284L555.448 355.825V420.17L551.284 408.861H592.571V429.919H551.284L555.448 418.61V482.565L551.284 465.992Z"
            fill="white" fill-opacity="0.1" />
        <path
            d="M610.086 350.95H647.566C656.767 350.95 663.708 354.395 668.388 361.284C673.147 368.174 675.527 378.378 675.527 391.897V401.256C675.527 414.385 673.147 424.33 668.388 431.089C663.628 437.849 656.688 441.228 647.566 441.228H627.934V420.17H641.974C647.209 420.17 651.096 418.35 653.634 414.71C656.251 411.071 657.56 405.546 657.56 398.136V394.627C657.56 386.827 656.291 381.108 653.753 377.468C651.215 373.828 647.288 372.008 641.974 372.008H624.483L628.767 364.989V487.44H610.086V350.95ZM643.996 434.989H662.557L677.073 487.44H657.917L643.996 434.989Z"
            fill="white" fill-opacity="0.1" />
        <path
            d="M692.119 350.95H727.576C740.188 350.95 749.429 355.045 755.299 363.234C761.168 371.423 764.103 384.422 764.103 402.231V436.159C764.103 453.967 761.168 466.967 755.299 475.156C749.429 483.345 740.188 487.44 727.576 487.44H692.119V350.95ZM706.754 467.162H724.601C732.057 467.162 737.372 464.822 740.545 460.142C743.797 455.332 745.423 447.533 745.423 436.744V401.646C745.423 390.727 743.797 382.928 740.545 378.248C737.372 373.568 732.057 371.228 724.601 371.228H706.754L710.799 356.02V482.565L706.754 467.162Z"
            fill="white" fill-opacity="0.1" />
        <path
            d="M813.591 489C802.248 489 793.682 485.49 787.891 478.471C782.101 471.321 778.73 460.207 777.778 445.128L796.577 443.763C797.212 451.953 798.996 458.127 801.931 462.287C804.945 466.447 809.03 468.526 814.186 468.526C818.866 468.526 822.515 466.967 825.133 463.847C827.83 460.597 829.178 456.177 829.178 450.588C829.178 446.038 828.266 442.463 826.442 439.864C824.696 437.264 822.317 435.184 819.303 433.624C816.368 432.064 813.155 430.634 809.665 429.334C806.175 428.034 802.645 426.539 799.076 424.85C795.585 423.03 792.333 420.69 789.319 417.83C786.384 414.84 784.005 410.941 782.18 406.131C780.435 401.191 779.563 394.887 779.563 387.217C779.563 375.128 782.656 365.769 788.843 359.139C795.03 352.38 803.637 349 814.662 349C825.767 349 834.255 352.315 840.124 358.944C845.994 365.574 849.286 375.583 850 388.972L831.082 391.117C830.685 383.708 829.099 378.248 826.323 374.738C823.626 371.228 819.62 369.474 814.305 369.474C809.784 369.474 806.215 371.033 803.597 374.153C801.059 377.143 799.789 381.368 799.789 386.827C799.789 391.507 800.662 395.212 802.407 397.942C804.232 400.541 806.611 402.686 809.546 404.376C812.56 405.936 815.812 407.366 819.303 408.666C822.872 409.966 826.402 411.461 829.892 413.15C833.382 414.84 836.595 417.115 839.53 419.975C842.544 422.835 844.923 426.669 846.668 431.479C848.493 436.159 849.405 442.268 849.405 449.808C849.405 462.027 846.232 471.646 839.887 478.666C833.541 485.555 824.776 489 813.591 489Z"
            fill="white" fill-opacity="0.1" />
        <path
            d="M962.268 350.95V487.44H941.089L905.037 395.992H904.68V487.44H886V350.95H907.06L943.111 442.398H943.468V350.95H962.268Z"
            fill="white" fill-opacity="0.1" />
        <path
            d="M994.284 465.992H1038.55V487.44H979.768V350.95H1037.95V372.398H994.284L998.448 355.825V420.17L994.284 408.861H1035.57V429.919H994.284L998.448 418.61V482.565L994.284 465.992Z"
            fill="white" fill-opacity="0.1" />
        <path
            d="M1053.09 350.95H1090.57C1099.77 350.95 1106.71 354.395 1111.39 361.284C1116.15 368.174 1118.53 378.378 1118.53 391.897V401.256C1118.53 414.385 1116.15 424.33 1111.39 431.089C1106.63 437.849 1099.69 441.228 1090.57 441.228H1070.93V420.17H1084.97C1090.21 420.17 1094.1 418.35 1096.63 414.71C1099.25 411.071 1100.56 405.546 1100.56 398.136V394.627C1100.56 386.827 1099.29 381.108 1096.75 377.468C1094.21 373.828 1090.29 372.008 1084.97 372.008H1067.48L1071.77 364.989V487.44H1053.09V350.95ZM1087 434.989H1105.56L1120.07 487.44H1100.92L1087 434.989Z"
            fill="white" fill-opacity="0.1" />
        <path
            d="M1135.12 350.95H1170.58C1183.19 350.95 1192.43 355.045 1198.3 363.234C1204.17 371.423 1207.1 384.422 1207.1 402.231V436.159C1207.1 453.967 1204.17 466.967 1198.3 475.156C1192.43 483.345 1183.19 487.44 1170.58 487.44H1135.12V350.95ZM1149.75 467.162H1167.6C1175.06 467.162 1180.37 464.822 1183.54 460.142C1186.8 455.332 1188.42 447.533 1188.42 436.744V401.646C1188.42 390.727 1186.8 382.928 1183.54 378.248C1180.37 373.568 1175.06 371.228 1167.6 371.228H1149.75L1153.8 356.02V482.565L1149.75 467.162Z"
            fill="white" fill-opacity="0.1" />
        <path
            d="M1256.59 489C1245.25 489 1236.68 485.49 1230.89 478.471C1225.1 471.321 1221.73 460.207 1220.78 445.128L1239.58 443.763C1240.21 451.953 1242 458.127 1244.93 462.287C1247.95 466.447 1252.03 468.526 1257.19 468.526C1261.87 468.526 1265.52 466.967 1268.13 463.847C1270.83 460.597 1272.18 456.177 1272.18 450.588C1272.18 446.038 1271.27 442.463 1269.44 439.864C1267.7 437.264 1265.32 435.184 1262.3 433.624C1259.37 432.064 1256.16 430.634 1252.67 429.334C1249.17 428.034 1245.65 426.539 1242.08 424.85C1238.59 423.03 1235.33 420.69 1232.32 417.83C1229.38 414.84 1227 410.941 1225.18 406.131C1223.44 401.191 1222.56 394.887 1222.56 387.217C1222.56 375.128 1225.66 365.769 1231.84 359.139C1238.03 352.38 1246.64 349 1257.66 349C1268.77 349 1277.25 352.315 1283.12 358.944C1288.99 365.574 1292.29 375.583 1293 388.972L1274.08 391.117C1273.69 383.708 1272.1 378.248 1269.32 374.738C1266.63 371.228 1262.62 369.474 1257.31 369.474C1252.78 369.474 1249.21 371.033 1246.6 374.153C1244.06 377.143 1242.79 381.368 1242.79 386.827C1242.79 391.507 1243.66 395.212 1245.41 397.942C1247.23 400.541 1249.61 402.686 1252.55 404.376C1255.56 405.936 1258.81 407.366 1262.3 408.666C1265.87 409.966 1269.4 411.461 1272.89 413.15C1276.38 414.84 1279.59 417.115 1282.53 419.975C1285.54 422.835 1287.92 426.669 1289.67 431.479C1291.49 436.159 1292.41 442.268 1292.41 449.808C1292.41 462.027 1289.23 471.646 1282.89 478.666C1276.54 485.555 1267.78 489 1256.59 489Z"
            fill="white" fill-opacity="0.1" />
        <path
            d="M1405.27 350.95V487.44H1384.09L1348.04 395.992H1347.68V487.44H1329V350.95H1350.06L1386.11 442.398H1386.47V350.95H1405.27Z"
            fill="white" fill-opacity="0.1" />
        <path
            d="M1437.28 465.992H1481.55V487.44H1422.77V350.95H1480.95V372.398H1437.28L1441.45 355.825V420.17L1437.28 408.861H1478.57V429.919H1437.28L1441.45 418.61V482.565L1437.28 465.992Z"
            fill="white" fill-opacity="0.1" />
        <path
            d="M1496.09 350.95H1533.57C1542.77 350.95 1549.71 354.395 1554.39 361.284C1559.15 368.174 1561.53 378.378 1561.53 391.897V401.256C1561.53 414.385 1559.15 424.33 1554.39 431.089C1549.63 437.849 1542.69 441.228 1533.57 441.228H1513.93V420.17H1527.97C1533.21 420.17 1537.1 418.35 1539.63 414.71C1542.25 411.071 1543.56 405.546 1543.56 398.136V394.627C1543.56 386.827 1542.29 381.108 1539.75 377.468C1537.21 373.828 1533.29 372.008 1527.97 372.008H1510.48L1514.77 364.989V487.44H1496.09V350.95ZM1530 434.989H1548.56L1563.07 487.44H1543.92L1530 434.989Z"
            fill="white" fill-opacity="0.1" />
        <path
            d="M1578.12 350.95H1613.58C1626.19 350.95 1635.43 355.045 1641.3 363.234C1647.17 371.423 1650.1 384.422 1650.1 402.231V436.159C1650.1 453.967 1647.17 466.967 1641.3 475.156C1635.43 483.345 1626.19 487.44 1613.58 487.44H1578.12V350.95ZM1592.75 467.162H1610.6C1618.06 467.162 1623.37 464.822 1626.54 460.142C1629.8 455.332 1631.42 447.533 1631.42 436.744V401.646C1631.42 390.727 1629.8 382.928 1626.54 378.248C1623.37 373.568 1618.06 371.228 1610.6 371.228H1592.75L1596.8 356.02V482.565L1592.75 467.162Z"
            fill="white" fill-opacity="0.1" />
        <path
            d="M1699.59 489C1688.25 489 1679.68 485.49 1673.89 478.471C1668.1 471.321 1664.73 460.207 1663.78 445.128L1682.58 443.763C1683.21 451.953 1685 458.127 1687.93 462.287C1690.95 466.447 1695.03 468.526 1700.19 468.526C1704.87 468.526 1708.52 466.967 1711.13 463.847C1713.83 460.597 1715.18 456.177 1715.18 450.588C1715.18 446.038 1714.27 442.463 1712.44 439.864C1710.7 437.264 1708.32 435.184 1705.3 433.624C1702.37 432.064 1699.16 430.634 1695.67 429.334C1692.17 428.034 1688.65 426.539 1685.08 424.85C1681.59 423.03 1678.33 420.69 1675.32 417.83C1672.38 414.84 1670 410.941 1668.18 406.131C1666.44 401.191 1665.56 394.887 1665.56 387.217C1665.56 375.128 1668.66 365.769 1674.84 359.139C1681.03 352.38 1689.64 349 1700.66 349C1711.77 349 1720.25 352.315 1726.12 358.944C1731.99 365.574 1735.29 375.583 1736 388.972L1717.08 391.117C1716.69 383.708 1715.1 378.248 1712.32 374.738C1709.63 371.228 1705.62 369.474 1700.31 369.474C1695.78 369.474 1692.21 371.033 1689.6 374.153C1687.06 377.143 1685.79 381.368 1685.79 386.827C1685.79 391.507 1686.66 395.212 1688.41 397.942C1690.23 400.541 1692.61 402.686 1695.55 404.376C1698.56 405.936 1701.81 407.366 1705.3 408.666C1708.87 409.966 1712.4 411.461 1715.89 413.15C1719.38 414.84 1722.59 417.115 1725.53 419.975C1728.54 422.835 1730.92 426.669 1732.67 431.479C1734.49 436.159 1735.41 442.268 1735.41 449.808C1735.41 462.027 1732.23 471.646 1725.89 478.666C1719.54 485.555 1710.78 489 1699.59 489Z"
            fill="white" fill-opacity="0.1" />
    </g>
    <defs>
        <linearGradient id="paint0_linear_309_139" x1="733.75" y1="0.929688" x2="733.75"
            y2="319.929" gradientUnits="userSpaceOnUse">
            <stop stop-color="#CB4C42" />
            <stop offset="1" stop-color="#654380" stop-opacity="0" />
        </linearGradient>
        <clipPath id="clip0_309_139">
            <rect width="1468" height="508" fill="white" />
        </clipPath>
    </defs>
</svg>